<svg xmlns="http://www.w3.org/2000/svg" width="125" height="125" viewBox="0 0 125 125">
  <defs>
    <style>
      .cls-1 {
        fill: #eee;
      }

      .cls-2 {
        fill: #e41e26;
      }
    </style>
  </defs>
  <g id="shipping-icon" transform="translate(-281 -1558)">
    <g id="Group_2" data-name="Group 2" transform="translate(281 1558)">
      <path id="Path_4" data-name="Path 4" class="cls-1" d="M62.5,0A62.5,62.5,0,1,1,0,62.5,62.5,62.5,0,0,1,62.5,0Z"/>
    </g>
    <path id="Icon_awesome-shipping-fast" data-name="Icon awesome-shipping-fast" class="cls-2" d="M43.875,24.75H42.75v-7.6a3.375,3.375,0,0,0-.991-2.384L34.734,7.741a3.375,3.375,0,0,0-2.384-.991h-3.1V3.375A3.376,3.376,0,0,0,25.875,0h-18A3.376,3.376,0,0,0,4.5,3.375V6.75H.563A.564.564,0,0,0,0,7.313V8.438A.564.564,0,0,0,.563,9H19.688a.564.564,0,0,1,.563.563v1.125a.564.564,0,0,1-.562.563H2.813a.564.564,0,0,0-.562.563v1.125a.564.564,0,0,0,.563.563H17.438a.564.564,0,0,1,.563.563v1.125a.564.564,0,0,1-.562.563H.563A.564.564,0,0,0,0,16.313v1.125A.564.564,0,0,0,.563,18H15.188a.564.564,0,0,1,.563.563v1.125a.564.564,0,0,1-.562.563H4.5v9a6.75,6.75,0,0,0,13.5,0h9a6.75,6.75,0,0,0,13.5,0h3.375A1.128,1.128,0,0,0,45,28.125v-2.25A1.128,1.128,0,0,0,43.875,24.75ZM11.25,32.625a3.375,3.375,0,1,1,3.375-3.375A3.376,3.376,0,0,1,11.25,32.625Zm22.5,0a3.375,3.375,0,1,1,3.375-3.375A3.376,3.376,0,0,1,33.75,32.625ZM39.375,18H29.25V10.125h3.1l7.024,7.024Z" transform="translate(321 1603)"/>
  </g>
</svg>
