<svg xmlns="http://www.w3.org/2000/svg" width="125" height="125" viewBox="0 0 125 125">
  <defs>
    <style>
      .cls-1 {
        fill: #eee;
      }

      .cls-2 {
        fill: #e41e26;
      }
    </style>
  </defs>
  <g id="warehousing-icon" transform="translate(-30.941)">
    <path id="Path_4" data-name="Path 4" class="cls-1" d="M62.5,0A62.5,62.5,0,1,1,0,62.5,62.5,62.5,0,0,1,62.5,0Z" transform="translate(30.941)"/>
    <path id="Icon_awesome-warehouse" data-name="Icon awesome-warehouse" class="cls-2" d="M35.438,24.75H9.591a.564.564,0,0,0-.562.563l-.007,3.375a.564.564,0,0,0,.563.563H35.438A.564.564,0,0,0,36,28.688V25.313A.564.564,0,0,0,35.438,24.75Zm0,6.75H9.57a.564.564,0,0,0-.562.563L9,35.438A.564.564,0,0,0,9.563,36H35.438A.564.564,0,0,0,36,35.438V32.063A.564.564,0,0,0,35.438,31.5Zm0-13.5H9.6a.564.564,0,0,0-.562.563l-.007,3.375A.564.564,0,0,0,9.6,22.5h25.84A.564.564,0,0,0,36,21.938V18.563A.564.564,0,0,0,35.438,18Zm7.488-9.773L23.794.26A3.386,3.386,0,0,0,21.2.26L2.074,8.227A3.383,3.383,0,0,0,0,11.341v24.1A.564.564,0,0,0,.563,36H6.188a.564.564,0,0,0,.563-.562V18a2.275,2.275,0,0,1,2.292-2.25H35.958A2.275,2.275,0,0,1,38.25,18V35.438a.564.564,0,0,0,.563.563h5.625A.564.564,0,0,0,45,35.438v-24.1A3.383,3.383,0,0,0,42.926,8.227Z" transform="translate(70.941 44.998)"/>
  </g>
</svg>
